<svg width="412" height="30" viewBox="0 0 412 30" fill="none" xmlns="http://www.w3.org/2000/svg">
<path fill-rule="evenodd" clip-rule="evenodd" d="M404.038 2L399.312 8.80952L393.962 2H386L395.58 14.5047V22.8H392.344V28H405.656V22.8H402.423V14.5047L412 2H404.038Z" fill="#5F07FF"/>
<path fill-rule="evenodd" clip-rule="evenodd" d="M0 2V7.19999H3.30188V22.8H0V28H14V22.8H10.6981V7.19999H14V2H0Z" fill="#0ED6EE"/>
<path fill-rule="evenodd" clip-rule="evenodd" d="M76 0V28.4746H82.7599V16.1441L98 30V1.52543C98 1.52543 91.2671 1.58365 91.2401 1.52543C91.2671 1.58365 91.2401 13.9831 91.2401 13.9831L76 0Z" fill="#1CB3F1"/>
<path fill-rule="evenodd" clip-rule="evenodd" d="M154 25.75L157.871 20.5C160.016 22.3406 162.906 24.0261 166.774 24C169.178 24.0261 170.934 23.0914 170.903 21.75C170.931 17.6972 154.878 21.0595 154.903 10.625C154.878 6.06365 158.85 2 166 2C170.474 2 174.363 3.30044 177.355 5.75L173.484 10.75C171.103 8.83187 168.008 7.97372 165.226 8C163.156 7.97372 161.986 8.78657 162 9.875C161.99 13.7613 178 10.8589 178 20.875C178 26.3831 173.861 30 166.387 30C160.732 30 156.801 28.2932 154 25.75Z" fill="#2C89F4"/>
<path fill-rule="evenodd" clip-rule="evenodd" d="M244.732 21.1875C248.691 21.1875 250.669 17.9198 250.669 14.7494C250.669 11.4199 248.579 8.1875 244.732 8.1875H240.943V21.1875H244.732ZM244.862 2C253.482 2 257.994 8.4722 257.998 14.7524C258.109 21.4164 253.636 28 244.862 28H234V2H244.862Z" fill="#3D5FF8"/>
<path fill-rule="evenodd" clip-rule="evenodd" d="M324.919 19.5865L322.247 14.3134L319.384 19.5865H324.919ZM327.594 24.8596L329.184 28H336L322.247 0L308 28H314.813L316.518 24.8596H327.594Z" fill="#4E33FB"/>
</svg>
