<svg width="727" height="758" viewBox="0 0 727 758" fill="none" xmlns="http://www.w3.org/2000/svg">
<path opacity="0.3" d="M300 748C465.685 748 600 722.256 600 690.5C600 658.744 465.685 633 300 633C134.315 633 0 658.744 0 690.5C0 722.256 134.315 748 300 748Z" fill="url(#paint0_radial)"/>
<path opacity="0.3" d="M504 691C504 713.103 412.902 731 300.5 731C188.099 731 97 713.103 97 691C97 689.645 97.3504 688.291 98.0511 686.936C108.492 666.758 195.176 651 300.5 651C407.646 651 495.451 667.257 503.439 687.934L503.65 688.433C503.86 689.289 504 690.144 504 691Z" fill="url(#paint1_radial)"/>
<path opacity="0.3" d="M422 691C422 703.701 367.395 714 300 714C232.605 714 178 703.701 178 691C178 690.657 178.07 690.313 178.141 689.902C181.092 677.681 234.573 668 300 668C365.779 668 419.47 677.818 421.93 690.107C422 690.451 422 690.725 422 691Z" fill="url(#paint2_radial)"/>
<path d="M301.991 619.621L301.344 636.163C301.316 636.713 301.245 637.209 301.074 637.694C300.549 639.601 299.269 641.125 297.292 642.223L297.939 625.681C299.916 624.584 301.196 623.059 301.721 621.152C301.906 620.568 301.977 620.072 301.991 619.621Z" fill="#9E305A"/>
<path d="M260.877 628.951L260.237 645.733L222.409 594.364L223.107 577.538L260.877 628.951Z" fill="#9E305A"/>
<path d="M297.426 626.028L297.465 642.239L285.074 649.021L285.035 632.811L297.426 626.028Z" fill="#9E305A"/>
<path d="M223.107 577.539L222.544 594.051L214.186 670.413L214.75 653.901L223.107 577.539Z" fill="#9E305A"/>
<path d="M284.294 661.354L283.925 678.237L268.615 657.499L268.94 640.559L284.294 661.354Z" fill="#9E305A"/>
<path d="M300.58 656.683L300.242 673.158C300.225 673.706 300.151 674.298 299.98 674.877C299.416 677.008 298.057 678.688 295.903 679.918C293.749 681.148 291.453 681.509 289.014 681.001C286.618 680.548 284.714 679.357 283.301 677.427L283.639 660.952C285.008 662.826 286.912 664.018 289.351 664.526C291.747 664.978 294.044 664.617 296.241 663.443C298.394 662.213 299.753 660.532 300.317 658.401C300.489 657.822 300.605 657.286 300.58 656.683Z" fill="#9E305A"/>
<path d="M200.179 665.891L199.313 681.983C198.056 680.25 197.454 678.431 197.565 676.481L198.431 660.389C198.32 662.339 198.866 664.202 200.179 665.891Z" fill="#9E305A"/>
<path d="M201.538 666.551L200.856 683.965L199.783 682.585L200.525 665.125L201.538 666.551Z" fill="#9E305A"/>
<path d="M269.255 640.959L269.222 657.841L217.132 686.476L217.21 669.651L269.255 640.959Z" fill="#9E305A"/>
<path d="M294.905 611.825C292.714 611.4 290.58 611.73 288.655 612.784L275.804 619.941L233.362 562.302C231.526 559.828 229.077 558.273 226.114 557.651C223.15 557.029 220.096 557.542 217.202 559.172L213.824 561.09C212.162 562.028 210.716 563.242 209.68 564.757C208.645 566.272 208.057 567.793 207.961 569.376L198.633 658.59C198.353 660.848 199.036 662.978 200.571 665.065L201.548 666.435C203.298 668.799 205.759 670.255 208.875 670.847C211.992 671.438 214.893 670.956 217.621 669.454L269.289 640.709L284.181 660.879C285.545 662.746 287.441 663.932 289.871 664.437C292.257 664.887 294.545 664.527 296.734 663.356C298.88 662.131 300.234 660.457 300.796 658.334C301.359 656.211 300.958 654.216 299.552 652.294L284.66 632.123L297.511 624.966C299.436 623.912 300.667 622.422 301.15 620.538C301.633 618.655 301.307 616.869 300.072 615.168C298.905 613.326 297.193 612.263 294.905 611.825ZM260.433 628.526L215.4 653.62L222.941 577.593L260.433 628.526Z" fill="#F25A7E"/>
<path d="M216.789 669.668L216.421 686.181C213.671 687.696 210.749 688.186 207.611 687.595C204.473 687.004 201.997 685.542 200.238 683.166L200.607 666.654C202.366 669.03 204.842 670.492 207.979 671.082C211.117 671.673 214.039 671.183 216.789 669.668Z" fill="#9E305A"/>
<path d="M514.726 500.3L514.079 516.842C514.051 517.393 513.98 517.889 513.81 518.374C513.284 520.281 512.004 521.805 510.027 522.902L510.674 506.36C512.651 505.263 513.931 503.739 514.457 501.832C514.585 501.292 514.712 500.752 514.726 500.3Z" fill="#9E305A"/>
<path d="M473.8 509.749L472.972 526.409L435.844 475.821L436.614 459.206L473.8 509.749Z" fill="#9E305A"/>
<path d="M511.153 505.933L510.803 522.446L497.809 529.697L498.159 513.184L511.153 505.933Z" fill="#9E305A"/>
<path d="M436.614 459.206L436.097 475.682L427.693 552.081L428.209 535.605L436.614 459.206Z" fill="#9E305A"/>
<path d="M497.292 542.357L496.66 558.91L481.914 538.787L482.447 522.223L497.292 542.357Z" fill="#9E305A"/>
<path d="M514.087 538.347L513.749 554.822C513.731 555.37 513.658 555.962 513.487 556.541C512.923 558.672 511.564 560.352 509.41 561.582C507.256 562.812 504.96 563.173 502.521 562.665C500.125 562.212 498.221 561.021 496.808 559.091L497.146 542.616C498.515 544.49 500.419 545.682 502.858 546.19C505.254 546.642 507.551 546.281 509.747 545.107C511.901 543.877 513.26 542.197 513.824 540.065C513.996 539.486 514.112 538.95 514.087 538.347Z" fill="#9E305A"/>
<path d="M413.31 546.752L413.812 562.881C412.455 561.032 411.723 559.15 411.668 557.196L411.167 541.067C411.222 543.021 411.953 544.903 413.31 546.752Z" fill="#9E305A"/>
<path d="M415.02 548.062L414.583 563.868L413.689 562.609L414.031 546.791L415.02 548.062Z" fill="#9E305A"/>
<path d="M482.445 522.219L481.966 538.511L430.188 567.563L430.764 551.283L482.445 522.219Z" fill="#9E305A"/>
<path d="M508.413 493.496C506.223 493.071 504.089 493.4 502.163 494.454L489.312 501.612L446.87 443.973C445.034 441.499 442.585 439.944 439.622 439.322C436.658 438.7 433.604 439.213 430.71 440.843L427.332 442.761C425.67 443.699 424.224 444.913 423.188 446.428C422.153 447.943 421.565 449.464 421.468 451.047L412.14 540.262C411.86 542.52 412.543 544.65 414.078 546.737L415.054 548.107C416.805 550.471 419.266 551.927 422.382 552.518C425.499 553.11 428.4 552.628 431.128 551.126L482.797 522.38L497.689 542.55C499.053 544.417 500.949 545.603 503.379 546.108C505.765 546.558 508.053 546.198 510.242 545.027C512.388 543.802 513.742 542.127 514.305 540.004C514.867 537.882 514.467 535.887 513.06 533.965L498.168 513.794L511.019 506.637C512.944 505.583 514.176 504.092 514.659 502.209C515.142 500.325 514.815 498.539 513.581 496.838C512.414 494.996 510.646 493.976 508.413 493.496ZM473.941 510.197L428.907 535.292L436.449 459.264L473.941 510.197Z" fill="#F25A7E"/>
<path d="M430.296 551.334L430.412 567.47C427.806 568.873 425.005 569.269 421.965 568.602C418.926 567.935 416.499 566.435 414.737 564.061L414.621 547.925C416.383 550.299 418.81 551.799 421.85 552.466C424.889 553.133 427.69 552.737 430.296 551.334Z" fill="#9E305A"/>
<path d="M389.201 580.111L388.899 596.586C388.785 586.413 383.986 574.888 374.544 562.065C365.146 549.299 355.134 540.757 344.509 536.44C333.883 532.123 323.668 532.662 313.807 538.101C304.211 543.424 299.346 550.956 299.2 560.795L299.502 544.321C299.691 534.537 304.556 527.005 314.109 521.626C323.927 516.132 334.142 515.592 344.81 519.965C355.436 524.282 365.447 532.824 374.846 545.59C384.343 558.37 389.142 569.895 389.201 580.111Z" fill="#9E305A"/>
<path d="M407.498 581.363L407.207 597.791C407.234 598.393 407.163 598.982 407.134 599.627C406.386 613.651 398.612 624.773 383.812 632.991C368.956 641.252 354.025 642.718 339.104 637.499C324.14 632.224 310.65 621.352 298.622 604.981C286.97 589.206 281.314 574.555 281.555 561.015L281.846 544.587C281.605 558.127 287.316 572.736 298.913 588.552C310.984 604.98 324.485 615.753 339.395 621.071C354.359 626.345 369.192 624.867 384.102 616.563C398.848 608.387 406.622 597.266 407.425 583.199C407.453 582.554 407.427 581.952 407.498 581.363Z" fill="#9E305A"/>
<path d="M350.073 504.979C335.088 499.87 320.242 501.448 305.437 509.699C290.521 518.036 282.612 529.217 281.778 543.101C280.932 557.082 286.521 572.146 298.479 588.432C310.437 604.719 323.865 615.361 338.739 620.556C353.669 625.708 368.515 624.13 383.486 615.75C398.291 607.499 406.145 596.361 407.046 582.336C407.893 568.355 402.359 553.248 390.444 537.017C378.529 520.785 365.057 510.088 350.073 504.979ZM375.042 545.643C384.374 558.326 389.086 569.749 389.134 579.858C389.183 589.967 384.246 597.777 374.423 603.3C364.6 608.823 354.412 609.424 343.803 605.147C333.237 600.924 323.322 592.402 313.893 579.708C304.604 567.08 299.935 555.712 299.886 545.603C299.838 535.494 304.774 527.684 314.597 522.161C324.42 516.638 334.609 516.037 345.217 520.314C355.869 524.646 365.796 533.071 375.042 545.643Z" fill="#F25A7E"/>
<path opacity="0.4" fill-rule="evenodd" clip-rule="evenodd" d="M599.192 685.812L600 686.996L535.849 223.959C532.791 222.053 529.883 220.19 527.092 218.401C505.527 204.579 490.9 195.203 467.291 205.115L14.4272 670.033L7 677.761C7.31946 677.596 7.64619 677.431 7.98017 677.265C2.76121 681.513 0 685.943 0 690.496C0 722.252 134.315 747.996 300 747.996C465.685 747.996 600 722.252 600 690.496C600 688.802 599.618 687.124 598.868 685.467C598.978 685.582 599.086 685.697 599.192 685.812Z" fill="url(#paint3_linear)"/>
<path opacity="0.4" fill-rule="evenodd" clip-rule="evenodd" d="M100.957 683.135L478.439 207.996C503.543 207.996 503.544 207.996 522.998 221.827L523 221.828L503.653 688.444C503.861 689.295 504 690.145 504 690.996C504 713.099 412.902 730.996 300.5 730.996C188.099 730.996 97 713.099 97 690.996C97 689.641 97.3504 688.287 98.0511 686.932C98.7158 685.647 99.6895 684.381 100.957 683.135Z" fill="url(#paint4_linear)"/>
<path opacity="0.3" fill-rule="evenodd" clip-rule="evenodd" d="M421.902 691.931C421.907 691.954 421.911 691.977 421.916 692L517 212.649C508.219 212.05 505.706 210.039 503.444 208.229C500.993 206.267 498.838 204.542 489.319 205.11L179 688.01C179.006 688.006 179.012 688.002 179.018 687.998C178.59 688.625 178.296 689.26 178.141 689.902C178.13 689.962 178.12 690.02 178.11 690.078C178.051 690.414 178 690.707 178 691C178 703.702 232.605 714 300 714C365.741 714 419.312 704.201 421.902 691.931ZM321.79 668.366C314.696 668.085 307.388 667.938 299.924 667.938C295.664 667.938 291.479 668.001 287.375 668.121C291.526 668.041 295.738 668 300 668C307.437 668 314.719 668.125 321.79 668.366Z" fill="url(#paint5_linear)"/>
<path d="M694.438 212.839C694.438 212.839 600.318 246.626 503.401 219.53C406.127 192.605 342.498 114.993 342.498 114.993C342.498 114.993 436.953 81.0079 533.871 108.104C631.145 135.029 694.438 212.839 694.438 212.839Z" fill="url(#paint6_linear)"/>
<path opacity="0.2" d="M358.43 119.437C358.43 119.437 446.602 85.6062 538.182 109.335C536.863 108.869 535.545 108.404 534.133 108.202C436.859 81.2769 342.761 115.091 342.761 115.091C342.761 115.091 405.019 191.33 503.328 219.827C504.647 220.292 506.059 220.494 507.377 220.96C416.3 192.757 358.43 119.437 358.43 119.437Z" fill="#FFF1EB"/>
<path d="M694.439 212.839C694.439 212.839 599.983 246.824 503.066 219.728C405.019 191.46 342.499 114.992 342.499 114.992L694.439 212.839Z" fill="url(#paint7_linear)"/>
<g opacity="0.15">
<path opacity="0.15" d="M457.553 147.003C462.069 141.775 494.621 106.699 528.148 106.67C516.698 103.815 505.326 101.58 493.939 100.229C438.614 102.351 392.44 127.279 391.82 127.356L390.036 128.21L390.982 129.73C391.323 130.444 418.129 175.5 464.391 205.772C474.661 210.288 485.645 214.462 497.172 217.938C468.549 200.715 459.027 153.752 457.553 147.003ZM515.1 104.141C483.031 111.802 455.49 143.605 454.311 145.265L453.768 145.963L453.752 146.847C454.156 149.066 460.948 190.32 484.869 213.299C433.751 187.54 401.515 139.381 395.403 129.808C405.581 124.503 458.209 99.7766 515.1 104.141Z" fill="#919FB7"/>
<path opacity="0.15" d="M535.81 108.495C535.282 108.309 534.755 108.122 533.963 107.843C533.436 107.657 532.908 107.471 532.024 107.455L500.955 218.987C501.483 219.173 502.01 219.359 502.802 219.639C503.329 219.825 503.857 220.011 504.741 220.027L535.81 108.495Z" fill="#919FB7"/>
<path opacity="0.15" d="M646.903 199.62L645.957 198.1C645.615 197.386 618.81 152.33 572.548 122.058C562.277 117.542 551.293 113.368 539.766 109.892C568.389 127.115 577.912 174.078 579.385 180.827C574.87 186.055 542.318 221.131 508.791 221.16C520.24 224.015 531.612 226.25 543 227.601C598.325 225.479 644.498 200.551 645.119 200.474L646.903 199.62ZM521.931 223.426C554.264 215.857 581.541 183.961 582.984 182.394L583.527 181.696L583.543 180.812C583.14 178.593 576.348 137.34 552.426 114.361C603.544 140.119 635.78 188.278 641.892 197.851C631.45 203.063 578.823 227.79 521.931 223.426Z" fill="#919FB7"/>
</g>
<path d="M428.799 187.286C451.388 200.599 476.132 212.004 503.065 219.732C530.091 227.197 557.195 230.24 583.29 230.257L428.799 187.286Z" fill="#56336D"/>
<path opacity="0.3" d="M694.438 212.837C694.438 212.837 631.145 135.027 533.871 108.102C530.876 107.341 528.146 106.674 525.151 105.914C608.633 132.419 661.16 203.759 661.16 203.759L694.438 212.837Z" fill="#FFF1FF"/>
<path d="M342.499 114.992C342.499 114.992 348.13 121.726 358.12 132.075L672.035 219.167C685.983 215.786 694.439 212.839 694.439 212.839L342.499 114.992Z" fill="#56336D"/>
<path d="M396.71 140.366C401.027 141.565 404.995 140.848 405.574 138.764C406.153 136.681 403.123 134.019 398.807 132.82C394.491 131.621 390.522 132.338 389.943 134.421C389.364 136.505 392.394 139.166 396.71 140.366Z" fill="#FFC7A4"/>
<path d="M455.867 156.811C460.183 158.01 464.152 157.293 464.73 155.209C465.309 153.126 462.28 150.464 457.963 149.265C453.647 148.066 449.679 148.783 449.1 150.867C448.521 152.95 451.551 155.612 455.867 156.811Z" fill="#FFC7A4"/>
<path d="M515.821 173.514C520.138 174.713 524.106 173.996 524.685 171.913C525.264 169.829 522.234 167.168 517.918 165.968C513.602 164.769 509.633 165.486 509.054 167.57C508.475 169.654 511.505 172.315 515.821 173.514Z" fill="#FFC7A4"/>
<path d="M575.509 190.135C579.826 191.334 583.794 190.617 584.373 188.534C584.952 186.45 581.922 183.788 577.606 182.589C573.29 181.39 569.321 182.107 568.742 184.191C568.163 186.275 571.193 188.936 575.509 190.135Z" fill="#FFC7A4"/>
<path d="M515.286 103.619C483.466 97.1316 452.778 96.6794 425.938 98.7718C438.518 122.789 565.831 121.76 565.831 121.76L515.286 103.619Z" fill="url(#paint8_linear)"/>
<path d="M635.197 206.756C639.514 207.955 643.482 207.238 644.061 205.155C644.64 203.071 641.61 200.41 637.294 199.21C632.978 198.011 629.009 198.728 628.43 200.812C627.851 202.896 630.881 205.557 635.197 206.756Z" fill="#FFC7A4"/>
<path d="M593.507 132.422C599.296 100.059 579.688 68.2213 547.558 59.2514C515.428 50.2816 482.04 67.5622 470.355 98.1405C470.355 98.1405 489.531 99.2745 533.017 111.364C576.504 123.453 593.507 132.422 593.507 132.422Z" fill="url(#paint9_linear)"/>
<g opacity="0.3">
<path opacity="0.3" d="M551.607 60.3841C550.289 59.9186 548.97 59.453 547.651 58.9875C515.521 50.0176 482.133 67.2983 470.448 97.8766C470.448 97.8766 473.365 98.0164 479.276 98.9167C490.743 70.6346 521.199 54.0984 551.607 60.3841Z" fill="#FFF1EB"/>
<path opacity="0.3" d="M541.116 113.628C539.797 113.163 538.386 112.961 537.067 112.495C577.466 124.088 593.6 132.157 593.6 132.157C593.787 131.629 593.616 131.272 593.802 130.745C584.928 127.316 568.142 121.093 541.116 113.628Z" fill="#FFF1EB"/>
</g>
<path d="M534.056 107.576C494.619 96.62 475.459 94.6016 472.015 94.2756C471.549 95.5943 470.82 96.8199 470.354 98.1386C470.354 98.1386 489.53 99.2726 533.017 111.362C576.503 123.451 593.599 132.156 593.599 132.156C593.801 130.744 594.003 129.332 594.112 128.184C591.04 126.803 573.494 118.533 534.056 107.576Z" fill="#56336D"/>
<g opacity="0.5">
<path opacity="0.5" d="M566.187 121.59C585.533 128.123 593.507 132.421 593.507 132.421C599.297 100.058 579.689 68.2211 547.559 59.2512C544.657 58.227 541.57 57.7303 538.746 57.3267C559.271 67.2421 570.486 93.447 566.187 121.59Z" fill="#FFF1FF"/>
</g>
<g opacity="0.5">
<path opacity="0.5" d="M585.41 99.9044C586.231 108.499 582.228 114.798 578.784 114.472C575.34 114.146 573.323 108.095 572.471 101.269C571.882 94.5353 572.611 88.2674 575.993 87.0886C579.376 85.9098 584.495 91.573 585.41 99.9044Z" fill="url(#paint10_linear)"/>
</g>
<path opacity="0.5" d="M631.014 217.736C642.084 221.644 653.392 218.2 656.272 210.043C659.152 201.886 652.512 192.105 641.442 188.197C630.372 184.289 619.063 187.734 616.183 195.891C613.304 204.047 619.944 213.828 631.014 217.736Z" fill="url(#paint11_radial)"/>
<path opacity="0.5" d="M571.236 201.388C582.306 205.297 593.615 201.852 596.495 193.695C599.374 185.538 592.734 175.758 581.664 171.85C570.594 167.942 559.286 171.386 556.406 179.543C553.526 187.7 560.166 197.48 571.236 201.388Z" fill="url(#paint12_radial)"/>
<path opacity="0.5" d="M511.647 184.498C522.718 188.406 534.026 184.961 536.906 176.805C539.785 168.648 533.146 158.867 522.075 154.959C511.005 151.051 499.697 154.495 496.817 162.652C493.938 170.809 500.577 180.59 511.647 184.498Z" fill="url(#paint13_radial)"/>
<path opacity="0.5" d="M451.701 167.787C462.771 171.695 474.079 168.251 476.959 160.094C479.839 151.937 473.199 142.156 462.129 138.248C451.059 134.34 439.75 137.784 436.87 145.941C433.991 154.098 440.631 163.879 451.701 167.787Z" fill="url(#paint14_radial)"/>
<path opacity="0.5" d="M392.544 151.346C403.615 155.254 414.923 151.809 417.803 143.652C420.682 135.495 414.043 125.715 402.972 121.807C391.902 117.899 380.594 121.343 377.714 129.5C374.835 137.657 381.474 147.437 392.544 151.346Z" fill="url(#paint15_radial)"/>
<defs>
<radialGradient id="paint0_radial" cx="0" cy="0" r="1" gradientUnits="userSpaceOnUse" gradientTransform="translate(300 690.5) rotate(90) scale(57.5 300)">
<stop stop-color="#FF4492"/>
<stop offset="1" stop-color="#FF49B6" stop-opacity="0.3"/>
</radialGradient>
<radialGradient id="paint1_radial" cx="0" cy="0" r="1" gradientUnits="userSpaceOnUse" gradientTransform="translate(300.5 691) rotate(90) scale(40 203.5)">
<stop stop-color="#FF4492"/>
<stop offset="1" stop-color="#FF49B6" stop-opacity="0.3"/>
</radialGradient>
<radialGradient id="paint2_radial" cx="0" cy="0" r="1" gradientUnits="userSpaceOnUse" gradientTransform="translate(300 691) rotate(90) scale(23 122)">
<stop stop-color="#FF4492"/>
<stop offset="1" stop-color="#FF49B6" stop-opacity="0.3"/>
</radialGradient>
<linearGradient id="paint3_linear" x1="182.49" y1="734.84" x2="533.168" y2="170.266" gradientUnits="userSpaceOnUse">
<stop stop-color="#FF49B6" stop-opacity="0.3"/>
<stop offset="1" stop-color="#FF4492"/>
</linearGradient>
<linearGradient id="paint4_linear" x1="228.432" y1="741.45" x2="606.494" y2="288.745" gradientUnits="userSpaceOnUse">
<stop stop-color="#FF49B6" stop-opacity="0.3"/>
<stop offset="1" stop-color="#FF4492"/>
</linearGradient>
<linearGradient id="paint5_linear" x1="270.572" y1="744.092" x2="675.148" y2="405.392" gradientUnits="userSpaceOnUse">
<stop stop-color="#FF49B6" stop-opacity="0.3"/>
<stop offset="1" stop-color="#FF4492"/>
</linearGradient>
<linearGradient id="paint6_linear" x1="342.519" y1="114.934" x2="694.501" y2="212.734" gradientUnits="userSpaceOnUse">
<stop stop-color="#8867C6"/>
<stop offset="0.9951" stop-color="#94ADD4"/>
</linearGradient>
<linearGradient id="paint7_linear" x1="519.539" y1="160.131" x2="496.052" y2="248.104" gradientUnits="userSpaceOnUse">
<stop stop-color="#5D4BA4"/>
<stop offset="0.442271" stop-color="#8752B0"/>
<stop offset="0.9951" stop-color="#BEF1CB"/>
</linearGradient>
<linearGradient id="paint8_linear" x1="427.923" y1="92.2879" x2="563.77" y2="130.034" gradientUnits="userSpaceOnUse">
<stop offset="0.00485437" stop-color="#AE687F"/>
<stop offset="0.5" stop-color="#8752B0"/>
<stop offset="1" stop-color="#5D4BA4"/>
</linearGradient>
<linearGradient id="paint9_linear" x1="478.26" y1="70.0733" x2="601.359" y2="104.277" gradientUnits="userSpaceOnUse">
<stop offset="0.00485437" stop-color="#9C5772"/>
<stop offset="0.5" stop-color="#7E49A4"/>
<stop offset="1" stop-color="#564197"/>
</linearGradient>
<linearGradient id="paint10_linear" x1="571.839" y1="98.4201" x2="585.869" y2="100.182" gradientUnits="userSpaceOnUse">
<stop stop-color="#FFDBD8"/>
<stop offset="1" stop-color="#FFF1F6"/>
</linearGradient>
<radialGradient id="paint11_radial" cx="0" cy="0" r="1" gradientUnits="userSpaceOnUse" gradientTransform="translate(636.334 202.965) rotate(19.4444) scale(21.2747 15.568)">
<stop stop-color="#FF780F"/>
<stop offset="1" stop-color="#FF00C7" stop-opacity="0"/>
</radialGradient>
<radialGradient id="paint12_radial" cx="0" cy="0" r="1" gradientUnits="userSpaceOnUse" gradientTransform="translate(576.556 186.617) rotate(19.4444) scale(21.2747 15.568)">
<stop stop-color="#FF780F"/>
<stop offset="1" stop-color="#FF00C7" stop-opacity="0"/>
</radialGradient>
<radialGradient id="paint13_radial" cx="0" cy="0" r="1" gradientUnits="userSpaceOnUse" gradientTransform="translate(516.967 169.727) rotate(19.4444) scale(21.2747 15.568)">
<stop stop-color="#FF780F"/>
<stop offset="1" stop-color="#FF00C7" stop-opacity="0"/>
</radialGradient>
<radialGradient id="paint14_radial" cx="0" cy="0" r="1" gradientUnits="userSpaceOnUse" gradientTransform="translate(457.021 153.016) rotate(19.4444) scale(21.2748 15.568)">
<stop stop-color="#FF780F"/>
<stop offset="1" stop-color="#FF00C7" stop-opacity="0"/>
</radialGradient>
<radialGradient id="paint15_radial" cx="0" cy="0" r="1" gradientUnits="userSpaceOnUse" gradientTransform="translate(397.864 136.574) rotate(19.4444) scale(21.2747 15.568)">
<stop stop-color="#FF780F"/>
<stop offset="1" stop-color="#FF00C7" stop-opacity="0"/>
</radialGradient>
</defs>
</svg>
