<svg width="24" height="24" viewBox="0 0 24 24" fill="none" xmlns="http://www.w3.org/2000/svg">
<path d="M11.6801 23.9983H11.76C14.9594 24.0516 17.9988 22.8785 20.3183 20.6655C22.6378 18.4526 23.9442 15.4664 23.9975 12.267C24.1308 5.68147 18.8786 0.189104 12.3199 0.0024703C5.62799 -0.13084 0.135788 5.14823 0.00248252 11.7604C-0.130823 18.3193 5.12142 23.8116 11.6801 23.9983ZM5.65465 10.4273L10.187 6.13473C11.1468 5.22822 12.3999 4.7483 13.733 4.77497C15.066 4.80163 16.2924 5.36153 17.1989 6.32136C18.1321 7.25453 18.6386 8.53431 18.5853 9.86741C18.532 11.2005 17.9988 12.427 17.039 13.3335L11.9467 18.1593C11.2268 18.8525 10.3203 19.1724 9.38721 19.1724C8.40074 19.1724 7.41428 18.7725 6.69443 18.026C5.28139 16.5329 5.33471 14.1866 6.82774 12.7736L11.7067 8.16104C12.1866 7.70779 12.7998 7.46783 13.4664 7.49449C14.1329 7.52115 14.7461 7.78777 15.1993 8.26769C15.6526 8.7476 15.8925 9.36083 15.8659 10.0274C15.8392 10.6939 15.5726 11.3072 15.0927 11.7604L13.3331 13.4135C13.0131 13.7067 12.5332 13.7067 12.24 13.3868C11.9467 13.0668 11.9467 12.5869 12.2666 12.2936L14.0529 10.6139C14.2395 10.454 14.3195 10.214 14.3462 9.97405C14.3462 9.7341 14.2662 9.49414 14.1062 9.3075C13.9463 9.12087 13.7063 9.04088 13.4664 9.01422C13.2264 9.01422 12.9865 9.09421 12.7998 9.25418L7.89418 13.8934C7.01436 14.7199 6.9877 16.1063 7.8142 16.9595C8.64069 17.8393 10.0271 17.866 10.8802 17.0395L15.9725 12.2137C16.639 11.5738 17.0123 10.7206 17.039 9.81408C17.0656 8.90757 16.719 8.02773 16.1058 7.36118C15.4659 6.69463 14.6128 6.32136 13.7063 6.2947C12.7998 6.26804 11.92 6.61464 11.2535 7.22787L6.72109 11.5204C6.40116 11.8137 5.92126 11.8137 5.62799 11.4938C5.33471 11.2005 5.36137 10.7206 5.65465 10.4273Z" fill="#939CAB"/>
</svg>
