<svg width="472" height="403" viewBox="0 0 472 403" fill="none" xmlns="http://www.w3.org/2000/svg">
<path d="M468.862 305.746C473.046 308.156 473.046 312.089 468.862 314.499L396.343 356.364C392.159 358.774 385.377 358.774 381.193 356.364L217.138 261.598C212.954 259.187 212.954 255.255 217.138 252.844L289.657 210.98C293.841 208.569 300.623 208.569 304.807 210.98L468.862 305.746Z" fill="#12104D" fill-opacity="0.4"/>
<path d="M472 292.72C472 295.889 472 298.931 472 301.53C472 303.304 471.239 305.142 468.893 306.537L396.356 348.366C392.172 350.774 385.387 350.774 381.202 348.366L217.107 253.617C214.951 252.349 214 250.701 214 249.053C214 246.582 214 242.842 214 240.307L289.644 202.978C293.828 200.57 300.613 200.57 304.798 202.978L472 292.72Z" fill="url(#paint0_linear)"/>
<path d="M468.862 289.394C473.046 291.821 473.046 295.78 468.862 298.206L396.343 340.352C392.159 342.779 385.377 342.779 381.193 340.352L217.138 244.95C212.954 242.523 212.954 238.564 217.138 236.137L289.657 193.992C293.841 191.565 300.623 191.565 304.807 193.992L468.862 289.394Z" fill="url(#paint1_linear)"/>
<path d="M447 281.763L368.194 327.172L230 247.581L308.806 202.172L447 281.763Z" fill="url(#paint2_linear)"/>
<path opacity="0.3" d="M468.552 294.832L396.049 336.912C391.867 339.335 385.085 339.335 380.903 336.912L216.885 241.658C215.681 240.957 214.794 240.064 214.287 239.172C213.463 241.212 214.414 243.444 217.139 245.038L381.219 340.355C385.402 342.778 392.184 342.778 396.366 340.355L468.869 298.275C471.847 296.553 472.671 294.067 471.467 291.963C470.96 292.983 470.009 294.003 468.552 294.832Z" fill="white"/>
<path d="M227 260.172L226 259.311V250.172L227 250.967V260.172Z" fill="white"/>
<path d="M369 341.341L367 340.128V332.102L369 333.254V341.341Z" fill="white"/>
<path d="M270.512 217.62C271.017 217.911 271.144 218.26 270.828 218.435L258.32 225.074C258.004 225.248 257.309 225.19 256.804 224.899L256.488 224.724C255.983 224.433 255.856 224.084 256.172 223.909L268.68 217.27C268.996 217.095 269.691 217.154 270.196 217.445L270.512 217.62Z" fill="#3A3768"/>
<path d="M252.259 227.648C253.247 228.219 253.247 229.172 252.259 229.743C251.272 230.315 249.667 230.315 248.741 229.743C247.753 229.172 247.753 228.219 248.741 227.648C249.728 227.013 251.272 227.013 252.259 227.648Z" fill="#3A3768"/>
<path d="M243.82 232.763C245.393 233.552 245.393 234.792 243.82 235.58C242.246 236.369 239.754 236.369 238.18 235.58C236.607 234.792 236.607 233.552 238.18 232.763C239.689 231.975 242.246 231.975 243.82 232.763Z" fill="#3A3768"/>
<path d="M426.221 307.784C429.926 309.933 429.926 313.41 426.221 315.56C422.515 317.709 416.485 317.709 412.779 315.56C409.074 313.41 409.074 309.933 412.779 307.784C416.485 305.635 422.515 305.635 426.221 307.784Z" fill="white"/>
<path d="M426.221 306.784C429.926 308.933 429.926 312.41 426.221 314.56C422.515 316.709 416.485 316.709 412.779 314.56C409.074 312.41 409.074 308.933 412.779 306.784C416.485 304.635 422.515 304.635 426.221 306.784Z" fill="url(#paint3_linear)"/>
<mask id="mask0" mask-type="alpha" maskUnits="userSpaceOnUse" x="197" y="0" width="250" height="328">
<path d="M447 281.537L368.049 327.172L229.601 247.184L197 200.306L286.687 14.959L317.239 0.171875L447 281.537Z" fill="url(#paint4_linear)"/>
</mask>
<g mask="url(#mask0)">
<path d="M229.75 185.172L230 184.283L229 184.172C229.5 184.505 229.5 184.839 229.75 185.172Z" fill="#D88F69"/>
<path d="M225.11 199.168L228 195.991C227.83 193.984 227.065 186.459 225.195 184.452C223.495 182.612 218.819 183.198 216.949 183.532C216.014 185.121 214.399 187.713 212.954 189.218C212.614 189.469 212.274 189.803 212.104 190.054C210.148 192.312 208.023 194.319 208.193 198.165C208.363 202.011 207.683 204.604 208.193 206.359C208.703 208.115 208.788 211.209 212.104 213.3C215.504 215.39 220.944 213.3 220.774 211.46C220.604 209.62 219.074 202.68 218.904 198.918C218.904 198.332 218.989 197.58 219.159 196.827C221.879 197.914 225.11 199.168 225.11 199.168Z" fill="#D88F69"/>
<path d="M220.037 188.146C220.037 188.146 223.601 185.954 223.941 188.146C224.28 190.339 225.128 193.831 225.807 196.187C226.486 198.542 225.213 205.77 224.45 207.15C223.601 208.612 214.268 208.125 214.013 207.962C213.674 207.8 220.037 188.146 220.037 188.146Z" fill="#CB825C"/>
<path d="M277 79.1719C277 79.1719 266.407 84.3275 260.448 98.0482C254.49 111.769 245.303 127.402 241.579 132.974C237.938 138.545 231.814 147.443 228.255 154.095C224.697 160.664 217 181.536 217 181.536C217 181.536 224.697 178.377 227.759 184.114C230.821 189.935 230.655 196.172 230.655 196.172C230.655 196.172 245.469 175.716 248.531 171.391C251.593 167.067 253.662 160.748 258.462 154.76C261.11 151.434 266.241 142.786 271.703 137.464C270.959 120.084 272.366 92.4768 277 79.1719Z" fill="#132436"/>
<path d="M227.319 184.519C224.805 179.969 219.108 181.166 217.097 181.805C216.511 182.763 215.924 183.88 216.008 183.88C216.176 183.88 222.878 182.443 224.973 184.678C227.068 186.913 227.822 196.172 227.822 196.172L230 192.899C229.749 190.585 228.995 187.472 227.319 184.519Z" fill="#E2E9ED"/>
<path opacity="0.5" d="M257.364 140.129C256.523 140.129 246.85 137.369 246.85 137.369C246.85 137.369 247.86 148.494 242.981 157.528C239.112 164.721 230.364 178.355 227 183.541C227.084 183.709 227.168 183.876 227.336 184.043C230.449 189.898 230.28 196.172 230.28 196.172C230.28 196.172 245.336 175.595 248.449 171.246C251.561 166.896 253.664 160.539 258.542 154.516C261.234 151.171 266.449 142.472 272 137.118C271.916 134.692 271.832 132.016 271.832 129.172C265.776 135.529 257.953 140.129 257.364 140.129Z" fill="#081624"/>
<path d="M279.293 209.176L278 172.176L286 181.69L284.869 205.679L279.293 209.176Z" fill="#000F28"/>
<path d="M283.021 194.967C283.021 194.967 288.447 205.819 299.268 210.557C310.089 215.379 319.283 213.844 327.024 210.935C334.682 208.026 348.083 202.872 348 187.244C348 187.244 336.097 177.685 339.509 164.218C342.922 150.752 346.501 126.978 346.501 126.978L338.677 94.1434L326.358 83.1708C326.358 83.1708 308.213 96.1384 300.472 93.229C292.731 90.4027 286.238 81.1758 286.238 81.1758L276 98.7984C276 98.7984 276.166 155.407 278.164 161.475C280.162 167.626 283.021 194.967 283.021 194.967Z" fill="#D5DCE0"/>
<path d="M341.715 299.692C344.094 285.407 354.921 229.438 353.937 212.815C353.199 200.368 349.098 191.68 347.129 188.172C346.801 203.292 333.923 208.387 326.459 211.228C319.815 213.817 312.023 214.486 303 211.395C303.611 220.573 305.56 231.532 307.573 235.811C310.198 243.496 308.578 285.825 308.824 293.427C309.07 301.028 312.925 324.084 313.827 342.044C314.729 360.004 308.578 405.698 308.578 405.698C308.578 405.698 318.339 407.787 328.838 403.192C335.235 400.436 340.731 389.66 340.731 389.66C340.731 389.66 345.242 346.221 345.488 335.863C345.817 325.337 339.419 313.893 341.715 299.692Z" fill="#132436"/>
<path d="M309.123 293.593C308.867 285.967 310.417 243.286 307.687 235.492C305.981 230.715 304.304 219.432 303.024 211.386L302.798 211.328C301.433 210.909 300.181 210.35 298.73 209.68C287.641 204.819 282.949 194.176 282.949 194.176C282.949 194.176 277.234 217.474 278.087 238.257C278.94 259.125 283.546 274.964 286.361 286.11C288.494 294.323 305.299 326.085 314 342.176C313.062 324.158 309.464 301.219 309.123 293.593Z" fill="#081624"/>
<path d="M320.832 64.1758C318.748 67.7955 316.247 70.9944 313.83 73.1831C308.495 78.0655 300.243 82.3587 293.658 83.3689C292.741 84.1265 292.324 85.6417 295.575 94.3123C297.659 99.8682 304.494 101.468 314.497 94.8173C324.5 88.1671 326 80.3384 326 80.3384C326 80.3384 320.415 71.8362 320.832 64.1758Z" fill="#D88F69"/>
<path opacity="0.15" d="M320.887 64.1758C318.825 67.8856 316.351 71.164 313.959 73.4072C308.68 78.4111 300.515 82.8111 294 83.8464C294.082 84.1052 294.247 84.4503 294.412 84.8817C297.546 84.5366 303.649 83.5875 309.505 80.3091C315.526 76.9444 321.134 82.7248 323.773 86.1758C325.588 83.0699 326 80.8268 326 80.8268C326 80.8268 320.474 72.0268 320.887 64.1758Z" fill="#D88F69"/>
<path d="M351.568 190.039C346.808 178.461 342.298 176.462 342.883 164.301C343.384 153.64 356.077 113.409 356.077 113.409L356.662 100.166C346.641 88.338 335.617 85.3395 327.433 79.1758C327.433 79.1758 325.596 87.5884 318.665 97.2504C311.733 106.912 301.712 132.233 304.468 162.719C307.224 193.204 317.078 251.176 317.078 251.176C317.078 251.176 349.897 250.176 359 226.438C358.916 226.354 356.328 201.616 351.568 190.039Z" fill="#1C2C3D"/>
<path d="M281.743 113.478C286.392 88.5545 294 76.1758 294 76.1758L276.586 79.1666C271.007 94.8684 269.992 130.592 271.852 145.712C273.627 160.833 274.304 182.849 274.304 193.898C274.304 204.864 271.683 228.209 271.683 228.209L280.644 239.176C284.701 211.178 277.093 138.318 281.743 113.478Z" fill="#1C2C3D"/>
<path d="M292.712 96.8482L295.173 106.113C295.173 106.113 290.334 122.471 289.349 141.918C288.201 165.121 290.252 192.247 290.252 192.247L294.353 200.176L299.192 195.001C299.192 195.001 296.977 155.439 296.485 142.085C295.665 120.719 298.946 106.697 298.946 106.697L306 101.606L300.176 93.1758L292.712 96.8482Z" fill="#B61617"/>
<path d="M323.557 75.1758C323.557 75.1758 318.778 89.3516 300 93.0604L303.856 105.176C303.856 105.176 322.299 95.4505 328 83.0055L323.557 75.1758Z" fill="#E2E9ED"/>
<path d="M293.162 81.1758H288.718C286.154 92.0503 291.282 103.176 291.282 103.176L300 93.3051C293.761 89.6245 293.162 81.1758 293.162 81.1758Z" fill="#E2E9ED"/>
<path d="M323.883 75.1791C323.469 75.1791 324.38 75.7662 324.214 76.8567C323.883 78.4504 319.58 89.2707 312.629 103.111C304.684 118.964 301.622 152.18 306.008 177.176C306.008 177.176 314.035 135.32 325.042 115.105L318.67 107.808L327.276 103.782L331 81.2184C331 81.3022 326.449 75.0113 323.883 75.1791Z" fill="#2D3E4F"/>
<path d="M294 80.3329C294 80.3329 280.869 107.782 281.444 129.991C282.018 151.118 281.28 165.176 281.28 165.176C281.28 165.176 272.827 126.581 275.535 101.294L283.085 99.88L278.407 91.978L291.292 75.1758L294 80.3329Z" fill="#2D3E4F"/>
<path d="M317.076 24.7439C309.829 20.4699 298.833 21.6432 291.42 27.4257C284.006 33.2083 282.34 39.6613 281.84 42.5945C281.34 45.5277 280.591 48.0419 280.091 50.2208C279.508 52.4835 281.923 54.9977 281.923 54.9977C279.674 58.2661 282.007 65.3896 282.673 67.1495C282.423 67.8199 282.34 68.4066 282.34 68.8256C282.507 69.9151 283.09 70.3341 283.839 70.5855C284.506 72.9321 285.172 75.6976 285.255 76.8709C285.339 78.6308 285.505 84.4972 292.336 84.162C299.166 83.8268 308.829 79.1337 314.744 73.7701C320.658 68.4066 326.572 57.8471 327.822 47.6228C328.988 37.5662 324.323 29.018 317.076 24.7439Z" fill="#F2A983"/>
<path d="M282.923 67.1758C283.663 64.8834 285.512 61.1992 285.956 58.8249C286.548 55.7957 281 53.1758 281 53.1758C281.518 54.322 282.257 55.2226 282.257 55.2226C280.26 58.4155 282.405 65.4565 282.923 67.1758Z" fill="#D88F69"/>
<path opacity="0.15" d="M317.234 24.7089C310.092 20.4931 299.255 21.6504 291.948 27.3542C286.12 31.9006 283.903 36.8604 283 40.1669C284.149 42.4815 285.709 44.2174 287.679 44.4654C294.493 45.4573 300.651 42.9775 304.099 43.8041C306.726 44.3827 308.285 49.2598 308.86 53.641C309.435 58.0221 312.226 59.4274 311.733 64.3872C311.241 68.6856 305.658 75.5467 304.263 80.1758C308.203 78.3572 311.98 75.8773 314.935 73.2321C320.764 67.9417 326.593 57.5261 327.824 47.4413C328.974 37.3564 324.376 28.9248 317.234 24.7089Z" fill="#F2A983"/>
<path d="M318.113 21.7937C306.818 15.1142 294.352 18.8612 288.077 23.5858C285.902 25.2965 283.392 27.7402 280.965 32.8721C278.958 37.0264 279.376 45.3352 289.165 45.4981C294.435 45.5796 301.38 44.1948 306.65 42.81C312.591 46.0683 310.666 52.0962 311.587 54.0512C312.507 56.0062 313.511 58.45 314.85 59.1016C315.686 59.5089 317.109 58.1241 317.443 57.7168C318.28 56.5764 324.304 48.9194 325.308 57.8798C326.73 54.4585 327.818 50.8744 328.236 47.3716C328.403 45.9054 328.487 44.4391 328.403 43.0544C329.993 39.4702 328.989 28.3104 318.113 21.7937Z" fill="#563317"/>
<path d="M311.571 54.7719C312.468 56.8335 313.447 59.4104 314.753 60.0976C315.568 60.5271 316.955 59.0668 317.281 58.6373C318.097 57.4348 323.971 49.3604 324.95 58.8091C326.336 55.2014 327.397 51.4219 327.805 47.7284C327.968 46.1822 328.05 44.636 327.968 43.1758C322.176 46.7835 314.916 48.4155 311 49.1027C311.408 51.5078 311.082 53.6553 311.571 54.7719Z" fill="#634024"/>
<path d="M288.997 83.1758C289.086 74.6209 287.123 70.3435 287.123 70.3435C287.034 70.008 285.338 70.5113 284 70.1758C284.714 72.5242 285.428 75.2919 285.517 76.4661C285.606 77.808 285.695 81.5822 288.997 83.1758Z" fill="#D88F69"/>
<path d="M317 66.8194C317.914 67.3078 320.106 67.9589 324.035 63.7267C327.872 59.5759 327.598 55.8321 325.405 54.6927C323.304 53.5532 321.294 54.4485 320.38 55.9135C319.467 57.4598 317 66.8194 317 66.8194Z" fill="#F2A983"/>
<path opacity="0.15" d="M317 66.8194C317.914 67.3078 320.106 67.9589 324.035 63.7267C327.872 59.5759 327.598 55.8321 325.405 54.6927C323.304 53.5532 321.294 54.4485 320.38 55.9135C319.467 57.4598 317 66.8194 317 66.8194Z" fill="#F2A983"/>
<path opacity="0.5" d="M359 226.018C359 226.018 356.242 201.284 351.414 189.709C346.501 178.133 341.846 176.134 342.449 163.975C342.966 153.316 356.069 113.092 356.069 113.092V112.176L342.018 123.585C342.018 123.585 334.863 153.982 336.156 166.724C337.363 178.299 352.362 214.443 347.966 240.176C352.707 236.595 356.673 232.014 359 226.018Z" fill="#132436"/>
<path d="M360.322 234.754C360.322 234.754 355.318 236.498 352.148 240.651C348.979 244.804 340.639 256.599 343.641 257.097C346.644 257.595 351.648 250.286 353.483 249.788C355.318 249.289 357.987 252.446 357.903 255.436C357.82 258.509 352.816 264.24 351.064 265.486C349.396 266.732 345.977 267.895 347.144 269.141C348.312 270.386 352.565 269.39 356.402 269.141C360.238 268.891 366.327 264.905 368.579 261.748C370.831 258.592 372.499 253.442 373.083 251.532C373.5 250.12 373.666 244.472 374 240.07L360.322 234.754Z" fill="#F2A983"/>
<path d="M364.22 259.3C363.216 259.387 361.625 261.979 359.7 263.88C358.277 265.263 353.544 268.112 351.451 269.581C352.707 269.408 354.595 269.411 355.85 269.325C359.7 269.066 366.303 265.356 368.563 262.072C369.651 260.43 370.866 257.597 371.703 255.609C367.602 257.597 365.141 259.214 364.22 259.3Z" fill="#D88F69"/>
<path d="M358.341 232.254L358 234.421L375.744 241.254L376 238.671C367.896 236.004 360.133 232.921 358.341 232.254Z" fill="#E2E9ED"/>
<path d="M350.106 98.3494C341.154 100.268 335.159 111.113 339.381 123.294C343.603 135.474 356.101 168.594 356.101 168.594L357.875 232.248C357.875 232.248 367.248 236.085 376.875 239.172C376.875 239.172 378.649 182.442 378.987 170.429C379.409 158.416 369.782 124.712 367.248 116.453C364.631 108.194 358.044 96.5974 350.106 98.3494Z" fill="#2D3E4F"/>
</g>
<path d="M254.862 349.746C259.046 352.156 259.046 356.089 254.862 358.499L182.343 400.364C178.159 402.774 171.377 402.774 167.193 400.364L3.13784 305.598C-1.04595 303.187 -1.04595 299.255 3.13784 296.844L75.6568 254.98C79.8405 252.569 86.6233 252.569 90.8071 254.98L254.862 349.746Z" fill="#12104D" fill-opacity="0.4"/>
<path d="M258 337.335C258 340.525 258 343.587 258 346.203C258 347.99 257.239 349.84 254.893 351.244L182.356 393.354C178.172 395.778 171.387 395.778 167.202 393.354L3.10691 297.969C0.951094 296.693 0 295.034 0 293.375C0 290.886 0 287.122 0 284.57L75.6436 246.99C79.8285 244.566 86.6129 244.566 90.7977 246.99L258 337.335Z" fill="url(#paint5_linear)"/>
<path d="M254.862 333.746C259.046 336.156 259.046 340.089 254.862 342.499L182.343 384.364C178.159 386.774 171.377 386.774 167.193 384.364L3.13784 289.598C-1.04595 287.187 -1.04595 283.255 3.13784 280.844L75.6568 238.98C79.8405 236.569 86.6233 236.569 90.8071 238.98L254.862 333.746Z" fill="url(#paint6_linear)"/>
<path d="M234 326.4L154.831 372.172L16 291.944L95.1688 246.172L234 326.4Z" fill="url(#paint7_linear)"/>
<path opacity="0.3" d="M254.552 338.832L182.049 380.912C177.867 383.335 171.085 383.335 166.903 380.912L2.88531 285.658C1.68116 284.957 0.793899 284.064 0.28689 283.172C-0.536999 285.212 0.413642 287.444 3.13881 289.038L167.219 384.355C171.402 386.778 178.184 386.778 182.366 384.355L254.869 342.275C257.847 340.553 258.671 338.067 257.467 335.963C256.96 336.983 256.009 338.003 254.552 338.832Z" fill="white"/>
<path d="M14 304.172L12 303.397V295.172L14 295.887V304.172Z" fill="white"/>
<path d="M155 386.262L154 385.707V376.734L155 377.319V386.262Z" fill="white"/>
<path d="M56.5119 261.676C57.0173 262.003 57.1437 262.396 56.8278 262.593L44.32 270.061C44.0042 270.258 43.3093 270.192 42.8039 269.865L42.4881 269.668C41.9827 269.341 41.8563 268.948 42.1722 268.751L54.68 261.282C54.9958 261.086 55.6907 261.151 56.1961 261.479L56.5119 261.676Z" fill="#3A3768"/>
<path d="M38.2593 271.648C39.2469 272.219 39.2469 273.172 38.2593 273.743C37.2716 274.315 35.6667 274.315 34.7407 273.743C33.7531 273.172 33.7531 272.219 34.7407 271.648C35.7284 271.013 37.2716 271.013 38.2593 271.648Z" fill="#3A3768"/>
<path d="M29.8197 276.763C31.3934 277.552 31.3934 278.792 29.8197 279.58C28.2459 280.369 25.7541 280.369 24.1803 279.58C22.6066 278.792 22.6066 277.552 24.1803 276.763C25.6885 275.975 28.2459 275.975 29.8197 276.763Z" fill="#3A3768"/>
<path d="M213.074 351.784C216.975 353.933 216.975 357.41 213.074 359.56C209.174 361.709 202.826 361.709 198.926 359.56C195.025 357.41 195.025 353.933 198.926 351.784C202.826 349.635 209.174 349.635 213.074 351.784Z" fill="white"/>
<path d="M213.074 350.784C216.975 352.933 216.975 356.41 213.074 358.56C209.174 360.709 202.826 360.709 198.926 358.56C195.025 356.41 195.025 352.933 198.926 350.784C202.826 348.635 209.174 348.635 213.074 350.784Z" fill="url(#paint8_linear)"/>
<path opacity="0.2" d="M109.25 338.672L110 339.172L109 338.172C109 338.422 109.167 338.672 109.25 338.672Z" fill="#FF4A5E"/>
<mask id="mask1" mask-type="alpha" maskUnits="userSpaceOnUse" x="16" y="88" width="218" height="285">
<path d="M234 326.439L154.831 372.172L16 292.012L118.162 88.1719L234 191.908V326.439Z" fill="url(#paint9_linear)"/>
</mask>
<g mask="url(#mask1)">
<path d="M224.431 198.272C223.999 195.764 220.711 194.344 220.018 194.176C219.326 194.009 218.894 196.349 217.942 197.937C217.077 199.525 215 201.364 215 201.364H215.519C215.519 201.364 215.692 213.483 216.211 213.817C216.644 214.151 223.133 214.82 224.258 212.48C225.47 210.14 224.95 200.695 224.431 198.272Z" fill="#D88F69"/>
<path d="M80.8591 282.168C80.8591 282.168 69.2374 300.276 71.2297 318.384C73.222 336.492 91.4015 340.957 91.4015 340.957L109 367.168L105.015 308.544L95.8012 294.819L80.8591 282.168Z" fill="#1A272B"/>
<path d="M95.733 191.879L85.199 178.168C85.199 178.168 78.0391 180.007 79.109 203.248C80.0965 226.49 79.4382 247.891 79.0267 255.248C78.6152 262.605 91.2889 282.168 91.2889 282.168L101 264.361L95.733 191.879Z" fill="#273438"/>
<path d="M133.873 190.781C133.873 190.781 132.619 178.013 134.291 173.172C136.047 168.332 137.635 167.498 139.809 166.913C141.481 166.496 144.909 167.247 148.504 159.403C152.099 151.558 150.511 148.303 151.012 144.965C151.514 141.627 152.434 139.291 151.765 136.119C151.096 132.948 149.591 121.181 140.06 117.426C130.529 113.754 119.158 114.839 113.055 118.678C106.951 122.516 102.353 131.112 102.687 139.791C103.105 148.554 108.038 153.811 108.373 159.737C108.707 165.662 105.279 173.172 101.851 177.846C98.4233 182.603 106.115 188.778 111.299 190.948C123.004 196.039 133.873 190.781 133.873 190.781Z" fill="#F2A983"/>
<path d="M139.853 159.128C139.092 153.106 139.092 147.168 139.092 147.168L128.428 155.699C128.428 155.699 130.121 177.695 124.028 187.564C122.758 189.572 122.758 191.495 123.52 193.168C129.867 192.917 134.437 190.743 134.437 190.743C134.437 190.743 133.167 177.946 134.86 173.095C136.637 168.244 138.245 167.408 140.446 166.823C141.292 166.572 142.561 166.655 144 165.903C142.307 164.564 140.276 162.306 139.853 159.128Z" fill="#D88F69"/>
<path d="M92.7839 481.614L113.132 490.168C113.132 490.168 143.196 418.745 146.103 407.866C148.927 396.903 152 351.559 152 339.018C152 326.395 146.519 304.386 146.519 304.386C146.519 304.386 109.726 303.224 95.6907 295.168C95.6907 295.168 85.9736 312.941 89.9601 330.547C94.0296 348.153 105.159 355.96 107.069 363.518C108.979 371.075 113.215 411.271 113.215 411.271C113.215 411.271 95.3585 445.072 92.7839 481.614Z" fill="#273438"/>
<path d="M69 311.92C69 311.92 69.8269 318.994 94.7158 328.731C123.16 339.883 154.085 320.326 154.085 320.326C154.085 320.326 145.072 283.875 145.486 278.715C145.982 273.555 154.085 254.414 155.987 249.004C157.806 243.678 165 242.43 165 227.367C165 217.547 153.01 201.069 143.501 194.411C136.473 189.584 124.152 188.169 111.171 183.675C98.1886 179.264 101.91 177.35 101.91 177.35C101.91 177.35 92.1525 172.44 86.6124 177.35C81.0724 182.26 79.4186 191.831 82.478 202.317C85.4548 212.803 98.9328 230.529 95.4599 250.586C91.9871 270.809 74.292 282.21 69 311.92Z" fill="#344145"/>
<path d="M104.501 172.168C104.501 172.168 105.677 173.478 117.522 177.734C131.803 182.89 141.128 189.193 146 195.168C146 195.168 120.546 192.712 108.701 189.193C96.8562 185.673 98.0323 175.606 98.0323 175.606L104.501 172.168Z" fill="white"/>
<path d="M150.417 123.288C147.348 117.629 141.708 109.89 121.887 112.803C102.065 115.715 100.821 135.52 102.563 145.007L108.617 161.733C108.949 161.9 108.202 167.725 114.754 170.055C121.306 172.385 126.863 170.887 129.268 167.142C131.673 163.398 132.586 157.323 133.83 154.577C136.235 149.334 140.796 147.753 142.04 151.415C142.206 151.997 142.538 152.496 142.704 152.413C142.87 152.413 142.953 152.08 143.201 151.997C144.114 151.581 145.275 146.422 146.27 143.343C147.265 140.264 150.168 133.606 151.08 132.358C151.163 132.358 153.485 128.946 150.417 123.288Z" fill="#613323"/>
<path d="M140.856 159.851C140.531 160.448 136.623 160.959 137.03 153.885C137.437 146.81 141.915 144.935 141.996 150.134C142.078 155.248 140.856 159.851 140.856 159.851Z" fill="#F2A983"/>
<path d="M141.842 151.111C142.008 151.702 142.341 152.209 142.507 152.125C142.673 152.125 142.757 151.787 143.006 151.702C143.921 151.28 145.002 146.294 146 143.168C144.836 146.125 142.258 148.322 140.178 146.548C137.933 144.604 128.951 153.73 122.381 156.349C115.811 158.969 114.314 151.787 113.982 151.533L105 152.378L108.327 161.588C108.659 161.757 107.911 167.672 114.481 170.038C121.051 172.404 126.623 170.883 129.034 167.08C131.446 163.278 132.361 157.11 133.609 154.321C136.02 148.914 140.594 147.393 141.842 151.111Z" fill="#542616"/>
<path d="M116.611 149.995C116.611 149.995 122.697 156.031 130 147.983C130 147.983 122.048 151.252 119.127 148.57C119.127 148.57 120.263 142.701 123.995 140.857C123.995 140.857 119.289 140.689 116.611 143.288C116.611 143.288 116.774 139.096 118.153 137.168C118.153 137.168 110.607 139.264 109.146 144.713C107.767 150.079 116.611 149.995 116.611 149.995Z" fill="#542616"/>
<path d="M107.005 148.979C107.005 148.979 107.423 142.382 112.523 143.246C116.537 143.953 118.71 147.251 117.791 151.099C116.871 155.026 112.607 158.482 109.681 156.675C106.755 154.948 107.005 148.979 107.005 148.979Z" fill="#D4DBDF"/>
<path d="M116.947 232.053C116.947 224.351 113.828 195.365 114.321 184.848C114.813 174.33 112.926 156.607 113.911 154.454C115.388 151.141 113.582 146.172 108.576 146.172C108.576 146.172 102.34 149.485 100.452 167.87C99.4676 177.228 98.0726 189.982 96.8416 201.245C94.3798 214.165 92.9027 223.606 92 225.594C92.4924 224.931 93.6412 223.523 94.9542 221.287C94.8722 222.695 94.7901 223.855 94.7901 224.683C94.7901 225.677 94.8722 226.753 94.9542 227.747C94.0515 239.507 93.0668 242.24 93.0668 242.24C93.0668 242.24 94.9542 238.762 96.6775 234.29C97.1699 241.743 101.519 252.344 101.519 252.344C101.519 252.344 100.042 245.221 100.945 241.992C100.945 241.992 101.683 245.139 103.407 247.043C103.407 247.043 103.489 244.807 104.145 242.157C105.376 247.706 107.346 253.172 107.346 253.172C107.838 251.681 108.412 247.954 108.905 243.813C110.054 247.375 110.792 251.019 110.792 251.019C112.187 249.362 114.567 241.163 114.567 241.163C114.895 243.234 114.895 246.05 114.895 246.05C117.521 238.265 116.947 232.053 116.947 232.053Z" fill="#613323"/>
<path opacity="0.5" d="M141.203 247.709C138.422 259.919 134.742 271.795 133.434 286.013C132.453 295.882 133.352 316.874 134.006 329.168C145.946 325.655 154.205 320.303 154.205 320.303C154.205 320.303 145.292 283.671 145.701 278.486C146.191 273.301 154.205 254.065 156.086 248.629C157.885 243.276 165 242.022 165 226.884C165 223.037 163.119 218.102 160.339 213.168L139.813 225.964C140.467 226.549 143.983 235.498 141.203 247.709Z" fill="#273438"/>
<path d="M212.249 200.032C212.988 199.276 212.906 191.544 214.302 191.208C215.617 190.872 217.834 192.637 217.588 196.419C217.424 200.2 217.259 203.226 218.656 203.73C220.052 204.15 223.912 206.839 223.995 210.117C224.077 213.394 223.255 214.991 219.477 217.596C215.699 220.201 200.667 236.168 200.667 236.168L195 220.957C195 220.957 205.76 215.747 206.91 214.15C207.978 212.638 208.881 203.478 212.249 200.032Z" fill="#F2A983"/>
<path d="M197.001 219.509C197.001 219.509 205.469 224.771 202.283 237.883C202.283 237.883 192.474 242.727 188.114 244.064C183.754 245.4 144.601 233.54 138.564 229.197C126.91 220.845 126.324 210.322 134.54 204.308C142.002 198.879 148.458 200.717 159.021 208.067C169.585 215.416 187.024 222.599 187.024 222.599L197.001 219.509Z" fill="#414E52"/>
<path d="M202.247 237.641C203.422 232.847 203.087 229.079 202.163 226.168C199.478 227.538 194.61 230.021 192.428 231.134C189.323 232.59 188.064 236.015 188.064 238.754C188.064 240.724 184.875 242.607 179 242.779C183.532 243.892 186.973 244.406 188.064 244.063C192.428 242.607 202.247 237.641 202.247 237.641Z" fill="#344145"/>
</g>
<defs>
<linearGradient id="paint0_linear" x1="471.991" y1="275.706" x2="213.938" y2="275.706" gradientUnits="userSpaceOnUse">
<stop stop-color="#7E95AE"/>
<stop offset="0.5556" stop-color="#B8D0DB"/>
<stop offset="1" stop-color="#FFEFE5"/>
</linearGradient>
<linearGradient id="paint1_linear" x1="290.869" y1="319.68" x2="395.871" y2="215.445" gradientUnits="userSpaceOnUse">
<stop stop-color="#CCD8E0"/>
<stop offset="0.582" stop-color="white"/>
<stop offset="1" stop-color="#E8E2E5"/>
</linearGradient>
<linearGradient id="paint2_linear" x1="229.971" y1="264.667" x2="447.026" y2="264.667" gradientUnits="userSpaceOnUse">
<stop stop-color="#F4CF5E"/>
<stop offset="0.4497" stop-color="#FFA19D"/>
<stop offset="1" stop-color="#BB1FAF"/>
</linearGradient>
<linearGradient id="paint3_linear" x1="410.026" y1="310.706" x2="429.011" y2="310.706" gradientUnits="userSpaceOnUse">
<stop stop-color="#CCD8E0"/>
<stop offset="1" stop-color="white"/>
</linearGradient>
<linearGradient id="paint4_linear" x1="229.571" y1="264.358" x2="447.026" y2="264.358" gradientUnits="userSpaceOnUse">
<stop stop-color="#F4CF5E"/>
<stop offset="0.4497" stop-color="#FFA19D"/>
<stop offset="1" stop-color="#BB1FAF"/>
</linearGradient>
<linearGradient id="paint5_linear" x1="257.991" y1="320.206" x2="-0.0622938" y2="320.206" gradientUnits="userSpaceOnUse">
<stop stop-color="#7E95AE"/>
<stop offset="0.5556" stop-color="#B8D0DB"/>
<stop offset="1" stop-color="#FFEFE5"/>
</linearGradient>
<linearGradient id="paint6_linear" x1="76.8689" y1="363.83" x2="181.174" y2="259.592" gradientUnits="userSpaceOnUse">
<stop stop-color="#CCD8E0"/>
<stop offset="0.582" stop-color="white"/>
<stop offset="1" stop-color="#E8E2E5"/>
</linearGradient>
<linearGradient id="paint7_linear" x1="15.9705" y1="309.167" x2="234.026" y2="309.167" gradientUnits="userSpaceOnUse">
<stop stop-color="#5E9AF4"/>
<stop offset="0.4497" stop-color="#A59DFF"/>
<stop offset="1" stop-color="#6D1FBB"/>
</linearGradient>
<linearGradient id="paint8_linear" x1="196.027" y1="354.706" x2="216.012" y2="354.706" gradientUnits="userSpaceOnUse">
<stop stop-color="#CCD8E0"/>
<stop offset="1" stop-color="white"/>
</linearGradient>
<linearGradient id="paint9_linear" x1="15.9705" y1="309.219" x2="234.027" y2="309.219" gradientUnits="userSpaceOnUse">
<stop stop-color="#F4CF5E"/>
<stop offset="0.4497" stop-color="#FFA19D"/>
<stop offset="1" stop-color="#BB1FAF"/>
</linearGradient>
</defs>
</svg>
